<?xml version="1.0" standalone="no"?>
<!DOCTYPE svg PUBLIC "-//W3C//DTD SVG 20010904//EN"
 "http://www.w3.org/TR/2001/REC-SVG-20010904/DTD/svg10.dtd">
<svg version="1.0" xmlns="http://www.w3.org/2000/svg"
 width="32.000000pt" height="32.000000pt" viewBox="0 0 32.000000 32.000000"
 preserveAspectRatio="xMidYMid meet">

<g transform="translate(0.000000,32.000000) scale(0.100000,-0.100000)"
fill="#000000" stroke="none">
<path d="M211 258 c-6 -7 -21 -26 -34 -42 l-24 -30 -18 27 c-12 19 -26 27 -47
27 l-29 0 23 -31 c13 -17 27 -37 32 -44 7 -9 -2 -26 -28 -56 -35 -42 -36 -44
-16 -47 12 -2 27 1 33 7 8 8 7 11 -2 11 -8 0 -4 11 10 31 l22 31 34 -41 c23
-27 43 -41 59 -41 13 0 24 3 24 6 0 3 -19 29 -42 56 -33 40 -39 53 -31 67 7
11 21 15 46 13 32 -3 37 0 43 22 3 14 3 30 -1 35 -9 15 -42 14 -54 -1z m-51
-103 c34 -41 58 -75 53 -75 -5 0 -28 26 -53 57 -60 75 -72 93 -66 93 2 0 32
-34 66 -75z"/>
</g>
</svg>
