<?xml version="1.0" standalone="no"?>
<!DOCTYPE svg PUBLIC "-//W3C//DTD SVG 20010904//EN"
 "http://www.w3.org/TR/2001/REC-SVG-20010904/DTD/svg10.dtd">
<svg version="1.0" xmlns="http://www.w3.org/2000/svg"
 width="1024.000000pt" height="1024.000000pt" viewBox="0 0 1024.000000 1024.000000"
 preserveAspectRatio="xMidYMid meet">

<g transform="translate(0.000000,1024.000000) scale(0.100000,-0.100000)"
fill="#000000" stroke="none">
<path d="M7210 8545 c-227 -50 -392 -131 -559 -275 -171 -147 -297 -363 -344
-589 -13 -65 38 -1 -672 -840 -138 -163 -340 -402 -449 -531 -109 -129 -201
-236 -205 -238 -4 -1 -48 48 -98 110 -197 242 -629 776 -841 1040 -229 285
-287 344 -415 417 -76 43 -219 88 -322 100 -57 7 -366 11 -838 11 l-748 0 33
-44 c19 -24 124 -158 235 -297 259 -326 486 -613 643 -813 69 -88 177 -225
241 -305 63 -80 228 -288 365 -461 137 -173 351 -442 474 -598 124 -156 229
-289 234 -296 9 -13 -258 -337 -1440 -1751 -793 -948 -1024 -1226 -1024 -1230
0 -3 352 -4 783 -3 l782 3 67 32 c81 38 138 89 266 241 53 64 127 150 165 193
37 42 67 80 67 83 0 3 -205 6 -456 6 l-455 0 62 77 c35 43 88 107 119 143 56
64 401 477 1050 1255 183 220 347 419 364 442 17 23 34 42 37 43 7 0 357 -440
694 -871 33 -42 175 -222 315 -400 736 -937 759 -965 894 -1058 137 -94 301
-160 451 -181 55 -7 316 -10 821 -8 l742 3 -135 170 c-75 94 -213 267 -307
385 -317 399 -717 901 -1355 1700 -643 805 -976 1222 -1067 1339 l-51 65 197
235 c108 130 339 409 514 621 175 212 320 387 322 389 2 2 56 -51 119 -117
235 -245 450 -387 683 -450 86 -23 116 -26 267 -26 154 0 180 2 280 28 61 15
147 45 192 66 284 132 509 395 585 683 21 78 22 106 25 632 4 477 2 559 -12
621 -26 117 -89 189 -208 238 -50 20 -66 21 -537 23 -389 1 -498 -1 -550 -12z
m-4053 -1341 c96 -20 164 -50 230 -103 33 -27 247 -286 589 -714 296 -370 587
-733 646 -807 97 -120 632 -791 1171 -1469 104 -130 351 -443 550 -696 199
-253 439 -558 534 -678 95 -119 173 -220 173 -223 0 -4 -53 -5 -118 -2 -135 7
-228 33 -333 94 -122 71 -150 102 -519 574 -136 173 -997 1262 -1498 1894
-101 127 -252 319 -337 426 -84 107 -209 265 -277 351 -115 146 -184 233 -614
774 -190 240 -432 548 -453 576 -13 18 -10 19 83 19 53 0 131 -7 173 -16z"/>
</g>
</svg>
